<svg width="25" height="25" viewBox="0 0 25 25" fill="none" xmlns="http://www.w3.org/2000/svg">
<path d="M17.2077 3.5233C16.9676 4.34013 15.0457 6.26185 14.1853 6.26185C16.8009 6.74662 17.2518 10.7252 17.7707 9.73226C18.2895 8.73933 18.4588 5.34404 17.2077 3.5233Z" fill="#C4FFFB"/>
<path d="M7.39006 3.5233C7.63023 4.34013 9.55208 6.26185 10.4125 6.26185C7.81874 6.6132 7.346 10.7252 6.82715 9.73226C6.30829 8.73933 6.13899 5.34404 7.39006 3.5233Z" fill="#C4FFFB"/>
<path fill-rule="evenodd" clip-rule="evenodd" d="M12.3 20.7899C15.6197 20.7899 18.444 18.6698 19.4931 15.7097C19.0776 16.162 18.5909 16.5567 18.0696 16.8548C16.8332 17.5619 15.334 17.7576 14.1113 16.7923C13.5862 16.4491 13.3272 15.845 13.2623 15.2768C13.199 14.723 13.3116 14.1225 13.631 13.7522C13.9632 13.1994 14.596 13.0436 15.1676 13.2411C15.6549 13.4096 16.0986 13.8272 16.3467 14.4631C16.5073 14.2778 16.5858 14.036 16.5929 13.7685C16.6035 13.3737 16.4547 12.9515 16.21 12.6571L16.6203 12.3159C16.9478 12.7098 17.1404 13.2582 17.1264 13.7827C17.1122 14.3141 16.8819 14.8483 16.3333 15.1452L16.026 15.3116L15.9464 14.9714C15.7815 14.267 15.3743 13.8772 14.9933 13.7455C14.6122 13.6139 14.2586 13.7294 14.0795 14.0422L14.0651 14.0675L14.0455 14.089C13.8531 14.3009 13.7376 14.7358 13.7925 15.2163C13.8466 15.6895 14.0571 16.1235 14.4112 16.3506L14.4226 16.3579L14.4332 16.3664C15.4258 17.1565 16.6762 17.0369 17.8047 16.3916C18.6511 15.9076 19.6756 15.1459 20.1265 14.3235C20.1845 13.9444 20.2145 13.556 20.2145 13.1606C20.2145 8.94706 16.5136 4.98724 12.3 4.98724C8.0865 4.98724 4.28355 8.94706 4.28355 13.1606C4.28355 13.556 4.31361 13.9445 4.37163 14.3236C4.82245 15.1459 5.94898 15.9076 6.79528 16.3916C7.92389 17.0369 9.17419 17.1565 10.1668 16.3664L10.1775 16.3579L10.1889 16.3506C10.5429 16.1235 10.7534 15.6895 10.8075 15.2163C10.8624 14.7358 10.7468 14.3009 10.5544 14.089L10.5349 14.0675L10.5205 14.0422C10.3414 13.7294 9.98784 13.6139 9.60677 13.7455C9.2257 13.8772 8.81849 14.267 8.65362 14.9714L8.57397 15.3116L8.26674 15.1452C7.71811 14.8483 7.48784 14.3141 7.47359 13.7827C7.45961 13.2582 7.65227 12.7098 7.97965 12.3159L8.39008 12.6571C8.1453 12.9515 7.99659 13.3737 8.0071 13.7685C8.01431 14.036 8.09275 14.2778 8.25327 14.4631C8.50135 13.8272 8.94514 13.4096 9.43244 13.2411C10.004 13.0436 10.6369 13.1994 10.969 13.7522C11.2885 14.1225 11.401 14.723 11.3377 15.2768C11.2728 15.845 11.0138 16.4491 10.4887 16.7923C9.26601 17.7576 7.76675 17.5619 6.53035 16.8548C6.00908 16.5567 5.52248 16.1621 5.1071 15.7099C6.15614 18.6699 8.98049 20.7899 12.3 20.7899ZM13.3196 8.27995L15.6683 7.49541V7.5272C15.6688 7.94553 15.6697 8.84439 15.0811 9.10593C14.2271 9.48552 13.3196 8.27995 13.3196 8.27995ZM8.93167 7.49541L11.2804 8.27995C11.2804 8.27995 10.3728 9.48552 9.51878 9.10593C8.93028 8.84439 8.93124 7.94571 8.93167 7.52746V7.49541ZM11.8417 11.4872C11.465 11.5739 11.1165 11.7181 10.8037 11.9084C10.7342 10.528 11.159 9.42802 11.9163 9.25369C12.8006 9.05017 13.8289 10.18 14.3206 11.8321C13.5923 11.4306 12.7178 11.2856 11.8417 11.4872Z" fill="#C4FFFB"/>
</svg>
