<svg width="44" height="44" viewBox="0 0 44 44" fill="none" xmlns="http://www.w3.org/2000/svg">
<path fill-rule="evenodd" clip-rule="evenodd" d="M0 6.875C0 3.07804 3.07804 0 6.875 0H37.125C40.922 0 44 3.07804 44 6.875V37.125C44 40.922 40.922 44 37.125 44H6.875C3.07804 44 0 40.922 0 37.125V6.875ZM22 11C28.05 11 33 15.95 33 22C33 27.5 29.0125 32.175 23.5125 33V25.1625H26.125L26.675 22H23.65V19.9375C23.65 19.1125 24.0625 18.2875 25.4375 18.2875H26.8125V15.5375C26.8125 15.5375 25.575 15.2625 24.3375 15.2625C21.8625 15.2625 20.2125 16.775 20.2125 19.525V22H17.4625V25.1625H20.2125V32.8625C14.9875 32.0375 11 27.5 11 22C11 15.95 15.95 11 22 11Z" fill="black"/>
</svg>
