<svg width="25" height="25" viewBox="0 0 25 25" fill="none" xmlns="http://www.w3.org/2000/svg">
<path fill-rule="evenodd" clip-rule="evenodd" d="M10.8152 14.8661C12.2378 15.8808 13.8169 16.2247 15.1608 15.6467C17.6714 14.5668 18.4106 10.6782 16.8119 6.96125C16.1947 5.5263 15.3193 4.3267 14.3326 3.45673C16.2243 4.05401 18.0484 5.76853 19.082 8.17163C20.6807 11.8886 19.7829 15.8454 17.0767 17.0094C15.0551 17.8789 12.5964 16.9441 10.8152 14.8661ZM13.6829 9.38062C12.2603 8.36598 10.6812 8.02202 9.33732 8.60006C6.82672 9.6799 6.0875 13.5685 7.68623 17.2855C8.30343 18.7204 9.17884 19.92 10.1656 20.79C8.27383 20.1927 6.44975 18.4782 5.41615 16.0751C3.81741 12.3581 4.71522 8.40131 7.42146 7.23732C9.44298 6.36783 11.9018 7.30265 13.6829 9.38062ZM12.2457 14.5014C13.559 14.5014 14.6236 13.4368 14.6236 12.1236C14.6236 10.8103 13.559 9.74573 12.2457 9.74573C10.9325 9.74573 9.86792 10.8103 9.86792 12.1236C9.86792 13.4368 10.9325 14.5014 12.2457 14.5014Z" fill="#00D3CF"/>
</svg>
