<svg width="159" height="70" viewBox="0 0 159 70" fill="none" xmlns="http://www.w3.org/2000/svg">
<path d="M52.9251 7.63362L52.8011 7.50964C55.3551 5.15398 59.0498 3.46782 62.5709 3.46782C71.324 3.46782 72.6134 8.84865 74.8203 14.9982L79.4572 27.9419L85.6811 10.5596C86.4746 8.35272 85.3588 8.15435 84.8381 8.15435V7.88159H88.3592V8.15435C87.8384 8.15435 86.9706 8.35272 86.1771 10.5596L77.9695 33.4715H77.5975L70.4561 13.5104C68.646 8.42711 65.7944 4.38529 60.6863 4.38529C57.9339 4.38529 55.1815 5.7243 52.9251 7.63362ZM86.4004 30H83.0033V29.752C83.5241 29.752 84.4415 29.4049 84.9127 28.1899L90.8142 12.6425H91.1861V12.6673L97.0629 28.1899C97.534 29.4049 98.4515 29.752 98.9722 29.752V30H92.1036V29.752C92.6243 29.752 93.6906 29.4049 93.2195 28.1899L91.6821 24.148H86.822L85.2846 28.1899C84.8135 29.4049 85.8797 29.752 86.4004 29.752V30ZM89.252 17.7258L86.946 23.8009H91.5581L89.252 17.7258ZM108.861 30.7439C95.8178 30.7439 96.1898 11.8986 108.861 11.8986C110.497 11.8986 112.927 12.3697 114.142 13.0888V15.0726H113.969C113.126 13.436 111.365 12.2458 108.861 12.2458C101.174 12.2458 100.926 30.3967 108.861 30.3967C109.654 30.3967 111.663 30.4463 111.663 28.1899V23.5529C111.663 22.2883 110.671 21.9908 110.15 21.9908V21.7428H116.771V21.9908C116.25 21.9908 115.258 22.2883 115.258 23.5529V28.1899C115.258 29.4545 116.25 29.752 116.771 29.752V30C116.201 29.9008 115.68 29.876 115.209 29.876C112.977 29.876 111.737 30.7439 108.861 30.7439ZM121.416 30H118.019V29.752C118.539 29.752 119.457 29.4049 119.928 28.1899L125.829 12.6425H126.201V12.6673L132.078 28.1899C132.549 29.4049 133.467 29.752 133.987 29.752V30H127.119V29.752C127.64 29.752 128.706 29.4049 128.235 28.1899L126.697 24.148H121.837L120.3 28.1899C119.829 29.4049 120.895 29.752 121.416 29.752V30ZM124.267 17.7258L121.961 23.8009H126.573L124.267 17.7258Z" fill="#292929"/>
<path d="M64.4173 45.3507V67.3948C64.4173 68.6594 65.4092 68.9569 65.9299 68.9569V69.2049H59.3093V68.9569C59.83 68.9569 60.8218 68.6594 60.8218 67.3948V45.1028L52.763 69.2049H51.5976L44.1338 45.2516V67.3948C44.1338 68.6594 45.1257 68.9569 45.6464 68.9569V69.2049H42.1749V68.9569C42.6956 68.9569 43.6875 68.6594 43.6875 67.3948V45.3507C43.6875 44.0861 42.6956 43.7886 42.1749 43.7886V43.5406H47.3326L53.8788 64.4192L60.8218 43.5406H65.9299V43.7886C65.4092 43.7886 64.4173 44.0861 64.4173 45.3507ZM68.4 65.7334V65.4854C68.9208 65.4854 69.9126 65.1879 69.9126 63.9233V50.186C69.9126 48.9214 68.9208 48.6239 68.4 48.6239V48.3759H81.2446V51.5498H80.9966C80.9966 51.0291 80.6991 48.723 78.2938 48.723H73.5081V58.1705H76.3349C78.7402 58.1705 78.8641 56.9307 79.1369 56.4099H79.3849V60.2782H79.1369C78.8641 59.7575 78.7402 58.5176 76.3349 58.5176H73.5081V65.3367V65.3862H78.2938C80.6991 65.3862 80.9966 63.0802 80.9966 62.5595H81.2446V65.7334H68.4ZM91.6194 63.7249C91.6194 58.964 83.2382 57.377 83.2382 51.897C83.2382 48.6735 86.9577 47.632 89.5365 47.632C90.7267 47.632 92.3385 48.1031 93.5535 48.8222V50.8059H93.3799C92.7848 49.6405 91.421 47.9792 89.4869 47.9792C87.4784 47.9792 86.5113 49.1446 86.5113 50.5332C86.5113 55.2445 95.0413 56.5587 95.0413 62.0883C95.0413 64.568 92.3881 66.4773 88.495 66.4773C85.5691 66.4773 84.1309 65.3367 83.2382 64.5432V62.5347H83.4118C83.8333 63.2786 85.1723 66.1301 88.495 66.1301C90.0572 66.1301 91.6194 65.4358 91.6194 63.7249ZM105.918 65.7334H99.297V65.4854C99.8177 65.4854 100.81 65.1879 100.81 63.9233V48.723H98.8258C96.4206 48.723 96.2966 50.2852 96.0238 50.8059H95.7759L96.0238 48.3759H109.191L109.439 50.8059H109.191C108.918 50.2852 108.794 48.723 106.389 48.723H104.405V63.9233C104.405 65.1879 105.397 65.4854 105.918 65.4854V65.7334ZM111.431 48.6239V48.3759H119.861C123.482 48.3759 126.581 50.5828 126.581 53.8559C126.581 55.7652 125.267 57.6994 122.862 58.5672L126.556 64.196C127.449 65.535 127.97 65.4854 128.466 65.4854V65.7334H123.73L119.266 59.0632H116.539V63.9233H116.563C116.563 65.1879 117.555 65.4854 118.076 65.4854V65.7334H111.431V65.4854C111.951 65.4854 112.943 65.1879 112.943 63.9233V50.186C112.943 48.9214 111.951 48.6239 111.431 48.6239ZM118.721 48.723H116.539V58.716H118.721C121.622 58.716 122.812 56.286 122.812 53.8559C122.812 51.7234 121.795 48.723 118.721 48.723ZM129.713 65.7334V65.4854C130.234 65.4854 131.226 65.1879 131.226 63.9233V50.186C131.226 48.9214 130.234 48.6239 129.713 48.6239V48.3759H142.558V51.5498H142.31C142.31 51.0291 142.012 48.723 139.607 48.723H134.821V58.1705H137.648C140.053 58.1705 140.177 56.9307 140.45 56.4099H140.698V60.2782H140.45C140.177 59.7575 140.053 58.5176 137.648 58.5176H134.821V65.3367V65.3862H139.607C142.012 65.3862 142.31 63.0802 142.31 62.5595H142.558V65.7334H129.713ZM149.734 63.2538H149.387C149.387 56.4843 154.172 57.6746 154.172 52.4673C154.172 45.3011 145.32 46.417 145.32 52.0954C145.32 54.2279 146.634 56.3356 148.643 56.6827L148.593 56.7571C146.461 56.4843 144.799 54.0543 144.799 51.8722C144.799 44.7804 156.751 45.4003 156.751 52.6409C156.751 58.2449 149.734 56.5835 149.734 63.2538ZM149.535 68.2378C150.478 68.2378 151.246 67.4444 151.246 66.4525C151.246 65.5102 150.577 64.6919 149.535 64.6919C148.543 64.6919 147.7 65.5102 147.7 66.4525C147.7 67.4444 148.543 68.2378 149.535 68.2378Z" fill="#292929"/>
<path d="M12.8211 8.00557C0.100565 8.00557 2.28265 21.6684 9.30004 21.6684C12.9947 21.6684 15.0032 17.205 12.9203 13.7583L13.0443 13.6344C17.8796 16.9819 15.3504 23.6025 9.74637 23.6025C0.447715 23.6025 0.447715 5.57552 13.3171 5.57552C21.6983 5.57552 28.5669 9.09661 33.8485 9.09661C37.1712 9.09661 39.5021 8.15435 40.2708 7.1129L40.3452 7.21208C39.3781 8.57589 37.444 11.2043 33.1294 11.2043C29.6331 11.2043 26.1616 10.3612 22.6901 9.54295V31.6614C22.6901 32.926 23.682 33.2235 24.2027 33.2235V33.4715H17.582V33.2235C18.1028 33.2235 19.0946 32.926 19.0946 31.6614V8.72467C17.0117 8.30313 14.9288 8.00557 12.8211 8.00557ZM26.4995 30V29.752C27.0202 29.752 28.012 29.4545 28.012 28.1899V14.4526C28.012 13.188 27.0202 12.8905 26.4995 12.8905V12.6425H39.344V15.8164H39.096C39.096 15.2957 38.7985 12.9897 36.3932 12.9897H31.6075V22.4371H34.4343C36.8396 22.4371 36.9636 21.1973 37.2363 20.6765H37.4843V24.5448H37.2363C36.9636 24.0241 36.8396 22.7842 34.4343 22.7842H31.6075V29.6033V29.6529H36.3932C38.7985 29.6529 39.096 27.3468 39.096 26.8261H39.344V30H26.4995ZM43.4453 28.1899C43.4453 29.4545 44.4372 29.752 44.9579 29.752V30H41.5856V29.752C42.1063 29.752 43.0981 29.4545 43.0981 28.1899V14.4526C43.0981 13.188 42.1063 12.8905 41.5856 12.8905V12.6425H47.0904L51.157 24.8919L55.4716 12.6425H60.5796V12.8905C60.0589 12.8905 59.067 13.188 59.067 14.4526V28.1899C59.067 29.4545 60.0589 29.752 60.5796 29.752V30H53.959V29.752C54.4797 29.752 55.4716 29.4545 55.4716 28.1899V13.684L49.6692 30H48.8261L43.4453 13.7831V28.1899Z" fill="#292929"/>
</svg>
