<svg width="25" height="25" viewBox="0 0 25 25" fill="none" xmlns="http://www.w3.org/2000/svg">
<path fill-rule="evenodd" clip-rule="evenodd" d="M9.89472 3.39593L9.85429 4.29046L10.8354 4.89507L11.2924 3.45911C11.0078 3.40398 10.411 3.35953 9.89472 3.39593ZM9.42654 7.39641L6.41949 5.38726C6.41949 5.38726 6.73924 5.10863 7.24999 4.87797C7.76075 4.64731 8.26542 4.55361 8.26542 4.55361L9.42654 7.39641ZM7.21694 7.99982L13.0078 10.8568L11.1023 7.81997L13.7819 8.1313L12.8718 5.70818C16.7241 6.0875 19.7518 9.95454 19.7518 14.669C19.7518 14.8425 19.7477 15.0148 19.7396 15.1858C17.2934 16.3168 15.6941 17.6659 15.9863 18.4674C16.0121 18.5381 16.0409 18.6121 16.0704 18.688L16.0704 18.688L16.0704 18.688C16.2725 19.2077 16.5078 19.8125 16.0389 20.0277C14.8621 20.5678 13.5844 20.8638 12.2491 20.8638C10.9136 20.8638 9.63577 20.5678 8.45883 20.0275C7.99001 19.8123 8.22523 19.2075 8.42732 18.6879C8.45682 18.6121 8.48561 18.538 8.5114 18.4673C8.8036 17.666 7.20448 16.3169 4.7585 15.186C4.75407 15.0921 4.75082 14.9978 4.74875 14.9032C4.74712 14.8254 4.74631 14.7473 4.74631 14.669C4.74631 12.0237 5.6996 9.6451 7.21694 7.99982ZM11.2538 14.0574C11.2538 15.2559 10.2823 16.2275 9.08369 16.2275C7.88512 16.2275 6.91355 15.2559 6.91355 14.0574C6.91355 12.8589 7.88512 11.8872 9.08369 11.8872C10.2823 11.8872 11.2538 12.8589 11.2538 14.0574ZM15.4143 16.2275C16.6129 16.2275 17.5845 15.2559 17.5845 14.0574C17.5845 12.8589 16.6129 11.8872 15.4143 11.8872C14.2158 11.8872 13.2442 12.8589 13.2442 14.0574C13.2442 15.2559 14.2158 16.2275 15.4143 16.2275ZM12.3371 16.1304L13.4351 19.5751C13.4351 19.5751 12.7122 19.76 12.249 19.76C11.7858 19.76 11.0629 19.5751 11.0629 19.5751L12.1609 16.1304C12.1883 16.0446 12.3097 16.0446 12.3371 16.1304Z" fill="#00AAAA"/>
</svg>
