<svg width="44" height="44" viewBox="0 0 44 44" fill="none" xmlns="http://www.w3.org/2000/svg">
<path fill-rule="evenodd" clip-rule="evenodd" d="M6.875 0C3.07806 0 0 3.07805 0 6.875V37.125C0 40.922 3.07806 44 6.875 44H37.125C40.9219 44 44 40.922 44 37.125V6.875C44 3.07805 40.9219 0 37.125 0H6.875ZM26.2876 11C26.2876 11.3269 26.3181 11.6489 26.3743 11.9605C26.6449 13.4008 27.4973 14.6369 28.6814 15.4081C29.5082 15.9496 30.4881 16.2612 31.5445 16.2612L31.5443 17.104V20.041C29.5845 20.041 27.7676 19.4128 26.2875 18.3503V26.0378C26.2875 29.8739 23.1641 33 19.3313 33C17.8512 33 16.4731 32.5299 15.3452 31.7382C13.5488 30.4766 12.375 28.3925 12.375 26.0378C12.375 22.1966 15.4933 19.0757 19.3262 19.0807C19.6477 19.0807 19.959 19.1063 20.2653 19.1472V20.041L20.2541 20.0464L20.2652 20.0462V23.0088C19.9692 22.9168 19.6528 22.8607 19.3262 22.8607C17.5756 22.8607 16.1517 24.2858 16.1517 26.0378C16.1517 27.2587 16.8458 28.316 17.8563 28.8523C17.8713 28.8728 17.8865 28.8931 17.9019 28.9132C17.8902 28.8908 17.8768 28.8687 17.8614 28.8472C18.3054 29.0822 18.8056 29.215 19.3364 29.215C21.046 29.215 22.4445 27.8512 22.5057 26.1553L22.5108 11H26.2876Z" fill="black"/>
</svg>
