<svg width="44" height="44" viewBox="0 0 44 44" fill="none" xmlns="http://www.w3.org/2000/svg">
<path fill-rule="evenodd" clip-rule="evenodd" d="M17.325 29.8375C18.7 30.6625 20.35 31.075 22 31.075C27.0875 31.075 31.075 26.95 31.075 22.1375C31.075 19.6625 30.25 17.4625 28.4625 15.675C26.675 14.025 24.475 13.0625 22 13.0625C17.05 13.0625 12.925 17.1875 12.925 22.1375C12.925 23.7875 13.3375 25.4375 14.3 26.95L14.575 27.3625L13.6125 30.6625L17.05 29.7L17.325 29.8375ZM25.025 23.375C25.3 23.375 26.675 24.0625 26.95 24.2C26.9928 24.2214 27.0357 24.2395 27.0779 24.2573C27.3073 24.3542 27.5214 24.4445 27.6375 25.025C27.775 25.025 27.775 25.575 27.5 26.2625C27.3625 26.8125 26.2625 27.5 25.7125 27.5C25.6193 27.5 25.5301 27.5079 25.4348 27.5163C24.9675 27.5577 24.354 27.6119 22.4125 26.8125C20.0028 25.8486 18.3322 23.5124 17.8631 22.8563C17.7968 22.7637 17.7545 22.7045 17.7375 22.6875C17.7141 22.6407 17.6667 22.566 17.6043 22.4674C17.3001 21.9871 16.6375 20.9409 16.6375 19.8C16.6375 18.425 17.325 17.7375 17.6 17.4625C17.875 17.1875 18.15 17.1875 18.2875 17.1875H18.8375C18.975 17.1875 19.25 17.1875 19.3875 17.6C19.6625 18.15 20.2125 19.525 20.2125 19.6625C20.2125 19.7083 20.2278 19.7542 20.2431 19.8C20.2736 19.8917 20.3042 19.9833 20.2125 20.075C20.1438 20.1437 20.1094 20.2125 20.075 20.2812C20.0406 20.35 20.0063 20.4188 19.9375 20.4875L19.525 20.9C19.3875 21.0375 19.25 21.175 19.3875 21.45C19.525 21.725 20.075 22.6875 20.9 23.375C21.8283 24.1872 22.5607 24.5099 22.932 24.6735C23.0007 24.7037 23.0571 24.7285 23.1 24.75C23.375 24.75 23.5125 24.75 23.65 24.6125C23.7188 24.475 23.8906 24.2688 24.0625 24.0625C24.2344 23.8562 24.4062 23.65 24.475 23.5125C24.6125 23.2375 24.75 23.2375 25.025 23.375Z" fill="black"/>
<path fill-rule="evenodd" clip-rule="evenodd" d="M0 6.875C0 3.07804 3.07804 0 6.875 0H37.125C40.922 0 44 3.07804 44 6.875V37.125C44 40.922 40.922 44 37.125 44H6.875C3.07804 44 0 40.922 0 37.125V6.875ZM22 11C24.8875 11 27.6375 12.1 29.7 14.1625C31.7625 16.225 33 18.975 33 21.8625C33 27.9125 28.05 32.8625 22 32.8625C20.2125 32.8625 18.425 32.3125 16.775 31.4875L11 33L12.5125 27.5C11.55 25.85 11 23.925 11 22C11 15.95 15.95 11 22 11Z" fill="black"/>
</svg>
